<mxfile host="app.diagrams.net" modified="2023-05-05T00:43:52.859Z" agent="Mozilla/5.0 (Windows NT 10.0; Win64; x64; rv:109.0) Gecko/20100101 Firefox/112.0" etag="ChcaFRbz4xMDgiRvTYoy" version="21.2.8" type="github">
  <diagram name="Page-1" id="e3a06f82-3646-2815-327d-82caf3d4e204">
    <mxGraphModel dx="2390" dy="1272" grid="1" gridSize="10" guides="1" tooltips="1" connect="1" arrows="1" fold="1" page="1" pageScale="1.5" pageWidth="1169" pageHeight="826" background="none" math="0" shadow="0">
      <root>
        <mxCell id="0" style=";html=1;" />
        <mxCell id="1" style=";html=1;" parent="0" />
        <mxCell id="qHYmxkXH6mtL37DCnTW1-1" value="" style="html=1;verticalLabelPosition=bottom;align=center;labelBackgroundColor=#ffffff;verticalAlign=top;strokeWidth=2;strokeColor=#0080F0;shadow=0;dashed=0;shape=mxgraph.ios7.icons.cloud;" vertex="1" parent="1">
          <mxGeometry x="213" y="140" width="655" height="460" as="geometry" />
        </mxCell>
        <mxCell id="6a7d8f32e03d9370-51" style="edgeStyle=none;rounded=0;html=1;startSize=10;endSize=10;jettySize=auto;orthogonalLoop=1;fontSize=14;endArrow=none;endFill=0;strokeWidth=2;exitX=0.5;exitY=1;exitDx=0;exitDy=0;exitPerimeter=0;" parent="1" source="qHYmxkXH6mtL37DCnTW1-4" target="6a7d8f32e03d9370-15" edge="1">
          <mxGeometry relative="1" as="geometry">
            <mxPoint x="1012.5906249999998" y="587" as="sourcePoint" />
          </mxGeometry>
        </mxCell>
        <mxCell id="6a7d8f32e03d9370-15" value="Web Server" style="verticalLabelPosition=top;aspect=fixed;html=1;verticalAlign=bottom;strokeColor=none;shape=mxgraph.citrix.cache_server;fillColor=#66B2FF;gradientColor=#0066CC;fontSize=14;labelPosition=center;align=center;" parent="1" vertex="1">
          <mxGeometry x="460" y="490" width="71" height="97.5" as="geometry" />
        </mxCell>
        <mxCell id="6a7d8f32e03d9370-44" style="edgeStyle=none;rounded=0;html=1;startSize=10;endSize=10;jettySize=auto;orthogonalLoop=1;fontSize=14;endArrow=none;endFill=0;strokeWidth=2;entryX=0.634;entryY=-0.096;entryDx=0;entryDy=0;entryPerimeter=0;" parent="1" source="qHYmxkXH6mtL37DCnTW1-4" target="qHYmxkXH6mtL37DCnTW1-3" edge="1">
          <mxGeometry relative="1" as="geometry">
            <mxPoint x="650.0030726256985" y="300" as="sourcePoint" />
            <mxPoint x="699.95" y="441" as="targetPoint" />
          </mxGeometry>
        </mxCell>
        <mxCell id="6a7d8f32e03d9370-62" value="EZTALK Azure Network Architecture" style="text;strokeColor=none;fillColor=none;html=1;fontSize=24;fontStyle=1;verticalAlign=middle;align=center;" parent="1" vertex="1">
          <mxGeometry x="110" y="50" width="861" height="40" as="geometry" />
        </mxCell>
        <mxCell id="qHYmxkXH6mtL37DCnTW1-2" value="Web Server" style="verticalLabelPosition=top;aspect=fixed;html=1;verticalAlign=bottom;strokeColor=none;shape=mxgraph.citrix.cache_server;fillColor=#66B2FF;gradientColor=#0066CC;fontSize=14;labelPosition=center;align=center;" vertex="1" parent="1">
          <mxGeometry x="320" y="490" width="71" height="97.5" as="geometry" />
        </mxCell>
        <mxCell id="qHYmxkXH6mtL37DCnTW1-3" value="Web Server" style="verticalLabelPosition=top;aspect=fixed;html=1;verticalAlign=bottom;strokeColor=none;shape=mxgraph.citrix.cache_server;fillColor=#66B2FF;gradientColor=#0066CC;fontSize=14;labelPosition=center;align=center;" vertex="1" parent="1">
          <mxGeometry x="620" y="490" width="71" height="97.5" as="geometry" />
        </mxCell>
        <mxCell id="qHYmxkXH6mtL37DCnTW1-4" value="" style="sketch=0;points=[[0,0,0],[0.25,0,0],[0.5,0,0],[0.75,0,0],[1,0,0],[0,1,0],[0.25,1,0],[0.5,1,0],[0.75,1,0],[1,1,0],[0,0.25,0],[0,0.5,0],[0,0.75,0],[1,0.25,0],[1,0.5,0],[1,0.75,0]];outlineConnect=0;fontColor=#232F3E;gradientColor=#F54749;gradientDirection=north;fillColor=#C7131F;strokeColor=#ffffff;dashed=0;verticalLabelPosition=bottom;verticalAlign=top;align=center;html=1;fontSize=12;fontStyle=0;aspect=fixed;shape=mxgraph.aws4.resourceIcon;resIcon=mxgraph.aws4.network_firewall;" vertex="1" parent="1">
          <mxGeometry x="560" y="240" width="78" height="78" as="geometry" />
        </mxCell>
        <mxCell id="qHYmxkXH6mtL37DCnTW1-5" value="" style="shape=image;html=1;verticalAlign=top;verticalLabelPosition=bottom;labelBackgroundColor=#ffffff;imageAspect=0;aspect=fixed;image=https://cdn2.iconfinder.com/data/icons/whcompare-isometric-web-hosting-servers/50/connected-globe-128.png" vertex="1" parent="1">
          <mxGeometry x="953" y="100" width="128" height="128" as="geometry" />
        </mxCell>
        <mxCell id="qHYmxkXH6mtL37DCnTW1-7" value="" style="points=[[0.35,0,0],[0.98,0.51,0],[1,0.71,0],[0.67,1,0],[0,0.795,0],[0,0.65,0]];verticalLabelPosition=bottom;sketch=0;html=1;verticalAlign=top;aspect=fixed;align=center;pointerEvents=1;shape=mxgraph.cisco19.user;fillColor=#005073;strokeColor=none;" vertex="1" parent="1">
          <mxGeometry x="971" y="380" width="110" height="110" as="geometry" />
        </mxCell>
        <mxCell id="qHYmxkXH6mtL37DCnTW1-8" style="edgeStyle=none;rounded=0;html=1;startSize=10;endSize=10;jettySize=auto;orthogonalLoop=1;fontSize=14;endArrow=none;endFill=0;strokeWidth=2;entryX=0.704;entryY=-0.027;entryDx=0;entryDy=0;entryPerimeter=0;" edge="1" parent="1" source="qHYmxkXH6mtL37DCnTW1-4" target="qHYmxkXH6mtL37DCnTW1-2">
          <mxGeometry relative="1" as="geometry">
            <mxPoint x="476" y="300" as="sourcePoint" />
            <mxPoint x="410" y="472" as="targetPoint" />
          </mxGeometry>
        </mxCell>
        <mxCell id="qHYmxkXH6mtL37DCnTW1-9" value="" style="endArrow=classic;startArrow=classic;html=1;rounded=0;exitX=-0.024;exitY=0.406;exitDx=0;exitDy=0;exitPerimeter=0;" edge="1" parent="1" source="qHYmxkXH6mtL37DCnTW1-7" target="qHYmxkXH6mtL37DCnTW1-4">
          <mxGeometry width="50" height="50" relative="1" as="geometry">
            <mxPoint x="1180" y="290" as="sourcePoint" />
            <mxPoint x="1230" y="240" as="targetPoint" />
          </mxGeometry>
        </mxCell>
        <mxCell id="qHYmxkXH6mtL37DCnTW1-11" value="" style="endArrow=none;html=1;rounded=0;entryX=0;entryY=0.5;entryDx=0;entryDy=0;exitX=0.75;exitY=0;exitDx=0;exitDy=0;exitPerimeter=0;" edge="1" parent="1" source="qHYmxkXH6mtL37DCnTW1-4" target="qHYmxkXH6mtL37DCnTW1-5">
          <mxGeometry width="50" height="50" relative="1" as="geometry">
            <mxPoint x="1180" y="290" as="sourcePoint" />
            <mxPoint x="1230" y="240" as="targetPoint" />
          </mxGeometry>
        </mxCell>
      </root>
    </mxGraphModel>
  </diagram>
</mxfile>
